<?xml version="1.0" encoding="UTF-8" standalone="no"?>
<!DOCTYPE svg PUBLIC "-//W3C//DTD SVG 1.1//EN" "http://www.w3.org/Graphics/SVG/1.1/DTD/svg11.dtd">
<svg width="428" height="926" viewBox="0 0 428 926" fill="none" xmlns="http://www.w3.org/2000/svg">
	<rect x="0.5" y="0.5" width="427" height="925" fill="#23AF74" fill-opacity="0.8"/>
	<path d="M169 398L47.7564 216.5H290.244L169 398Z" fill="white"/>
	<path d="M148.306 358.416L54.7715 221.25L240.201 220.227L148.306 358.416Z" fill="#23AF74" fill-opacity="0.63"/>
	<path d="M170 371V534" stroke="white" stroke-width="20"/>
	<path d="M289.202 182.613L169.558 358.96" stroke="black" stroke-width="20" stroke-linecap="round"/>
	<path d="M47.0455 615.818H55.4545L75.2273 664.114H75.9091L95.6818 615.818H104.091V674H97.5V629.795H96.9318L78.75 674H72.3864L54.2045 629.795H53.6364V674H47.0455V615.818ZM135.036 674.909C131.096 674.909 127.64 673.972 124.666 672.097C121.712 670.222 119.401 667.598 117.734 664.227C116.087 660.856 115.263 656.917 115.263 652.409C115.263 647.864 116.087 643.896 117.734 640.506C119.401 637.116 121.712 634.483 124.666 632.608C127.64 630.733 131.096 629.795 135.036 629.795C138.975 629.795 142.422 630.733 145.376 632.608C148.35 634.483 150.661 637.116 152.308 640.506C153.975 643.896 154.808 647.864 154.808 652.409C154.808 656.917 153.975 660.856 152.308 664.227C150.661 667.598 148.35 670.222 145.376 672.097C142.422 673.972 138.975 674.909 135.036 674.909ZM135.036 668.886C138.028 668.886 140.49 668.119 142.422 666.585C144.354 665.051 145.784 663.034 146.712 660.534C147.64 658.034 148.104 655.326 148.104 652.409C148.104 649.492 147.64 646.775 146.712 644.256C145.784 641.737 144.354 639.701 142.422 638.148C140.49 636.595 138.028 635.818 135.036 635.818C132.043 635.818 129.581 636.595 127.649 638.148C125.717 639.701 124.287 641.737 123.359 644.256C122.431 646.775 121.967 649.492 121.967 652.409C121.967 655.326 122.431 658.034 123.359 660.534C124.287 663.034 125.717 665.051 127.649 666.585C129.581 668.119 132.043 668.886 135.036 668.886ZM168.246 630.364L178.7 648.205L189.155 630.364H196.882L182.791 652.182L196.882 674H189.155L178.7 657.068L168.246 674H160.518L174.382 652.182L160.518 630.364H168.246ZM206.449 674V630.364H213.153V674H206.449ZM209.858 623.091C208.551 623.091 207.424 622.646 206.477 621.756C205.549 620.866 205.085 619.795 205.085 618.545C205.085 617.295 205.549 616.225 206.477 615.335C207.424 614.445 208.551 614 209.858 614C211.165 614 212.282 614.445 213.21 615.335C214.157 616.225 214.631 617.295 214.631 618.545C214.631 619.795 214.157 620.866 213.21 621.756C212.282 622.646 211.165 623.091 209.858 623.091ZM244.411 630.364V636.045H221.797V630.364H244.411ZM228.388 619.909H235.092V661.5C235.092 663.394 235.367 664.814 235.916 665.761C236.484 666.689 237.204 667.314 238.075 667.636C238.965 667.939 239.903 668.091 240.888 668.091C241.626 668.091 242.232 668.053 242.706 667.977C243.179 667.883 243.558 667.807 243.842 667.75L245.206 673.773C244.751 673.943 244.117 674.114 243.303 674.284C242.488 674.473 241.456 674.568 240.206 674.568C238.312 674.568 236.456 674.161 234.638 673.347C232.839 672.532 231.342 671.292 230.149 669.625C228.975 667.958 228.388 665.856 228.388 663.318V619.909ZM272.322 674.909C268.118 674.909 264.491 673.981 261.442 672.125C258.411 670.25 256.072 667.636 254.425 664.284C252.796 660.913 251.982 656.992 251.982 652.523C251.982 648.053 252.796 644.114 254.425 640.705C256.072 637.277 258.364 634.606 261.3 632.693C264.254 630.761 267.701 629.795 271.641 629.795C273.913 629.795 276.158 630.174 278.374 630.932C280.589 631.689 282.607 632.92 284.425 634.625C286.243 636.311 287.692 638.545 288.771 641.33C289.851 644.114 290.391 647.542 290.391 651.614V654.455H256.754V648.659H283.572C283.572 646.197 283.08 644 282.095 642.068C281.129 640.136 279.747 638.612 277.947 637.494C276.167 636.377 274.065 635.818 271.641 635.818C268.97 635.818 266.66 636.481 264.709 637.807C262.777 639.114 261.29 640.818 260.249 642.92C259.207 645.023 258.686 647.277 258.686 649.682V653.545C258.686 656.841 259.254 659.634 260.391 661.926C261.546 664.199 263.146 665.932 265.192 667.125C267.237 668.299 269.614 668.886 272.322 668.886C274.084 668.886 275.675 668.64 277.095 668.148C278.535 667.636 279.775 666.879 280.817 665.875C281.858 664.852 282.663 663.583 283.232 662.068L289.709 663.886C289.027 666.083 287.881 668.015 286.271 669.682C284.661 671.33 282.673 672.617 280.305 673.545C277.938 674.455 275.277 674.909 272.322 674.909ZM318.317 674.909C314.226 674.909 310.703 673.943 307.749 672.011C304.794 670.08 302.521 667.419 300.93 664.028C299.339 660.638 298.544 656.765 298.544 652.409C298.544 647.977 299.358 644.066 300.987 640.676C302.635 637.267 304.927 634.606 307.862 632.693C310.817 630.761 314.264 629.795 318.203 629.795C321.271 629.795 324.036 630.364 326.499 631.5C328.961 632.636 330.978 634.227 332.55 636.273C334.122 638.318 335.097 640.705 335.476 643.432H328.771C328.26 641.443 327.124 639.682 325.362 638.148C323.62 636.595 321.271 635.818 318.317 635.818C315.703 635.818 313.411 636.5 311.442 637.864C309.491 639.208 307.966 641.112 306.868 643.574C305.788 646.017 305.249 648.886 305.249 652.182C305.249 655.553 305.779 658.489 306.839 660.989C307.919 663.489 309.434 665.43 311.385 666.812C313.355 668.195 315.665 668.886 318.317 668.886C320.059 668.886 321.641 668.583 323.061 667.977C324.482 667.371 325.684 666.5 326.669 665.364C327.654 664.227 328.355 662.864 328.771 661.273H335.476C335.097 663.848 334.16 666.169 332.663 668.233C331.186 670.278 329.226 671.907 326.783 673.119C324.358 674.312 321.536 674.909 318.317 674.909ZM351.982 647.75V674H345.277V615.818H351.982V637.182H352.55C353.572 634.928 355.107 633.138 357.152 631.812C359.216 630.468 361.963 629.795 365.391 629.795C368.364 629.795 370.968 630.392 373.203 631.585C375.438 632.759 377.171 634.568 378.402 637.011C379.652 639.436 380.277 642.523 380.277 646.273V674H373.572V646.727C373.572 643.261 372.673 640.581 370.874 638.688C369.093 636.775 366.622 635.818 363.459 635.818C361.262 635.818 359.292 636.282 357.55 637.21C355.826 638.138 354.463 639.492 353.459 641.273C352.474 643.053 351.982 645.212 351.982 647.75Z" fill="white"/>
	<path d="M93.1818 714.818V773H86.3636L54.6591 727.318H54.0909V773H47.0455V714.818H53.8636L85.6818 760.614H86.25V714.818H93.1818ZM124.098 773.909C120.159 773.909 116.702 772.972 113.729 771.097C110.774 769.222 108.464 766.598 106.797 763.227C105.149 759.856 104.325 755.917 104.325 751.409C104.325 746.864 105.149 742.896 106.797 739.506C108.464 736.116 110.774 733.483 113.729 731.608C116.702 729.733 120.159 728.795 124.098 728.795C128.037 728.795 131.484 729.733 134.439 731.608C137.412 733.483 139.723 736.116 141.371 739.506C143.037 742.896 143.871 746.864 143.871 751.409C143.871 755.917 143.037 759.856 141.371 763.227C139.723 766.598 137.412 769.222 134.439 771.097C131.484 772.972 128.037 773.909 124.098 773.909ZM124.098 767.886C127.09 767.886 129.553 767.119 131.484 765.585C133.416 764.051 134.846 762.034 135.774 759.534C136.702 757.034 137.166 754.326 137.166 751.409C137.166 748.492 136.702 745.775 135.774 743.256C134.846 740.737 133.416 738.701 131.484 737.148C129.553 735.595 127.09 734.818 124.098 734.818C121.106 734.818 118.643 735.595 116.712 737.148C114.78 738.701 113.35 740.737 112.422 743.256C111.494 745.775 111.03 748.492 111.03 751.409C111.03 754.326 111.494 757.034 112.422 759.534C113.35 762.034 114.78 764.051 116.712 765.585C118.643 767.119 121.106 767.886 124.098 767.886ZM173.082 729.364V735.045H150.469V729.364H173.082ZM157.06 718.909H163.764V760.5C163.764 762.394 164.039 763.814 164.588 764.761C165.156 765.689 165.876 766.314 166.747 766.636C167.637 766.939 168.575 767.091 169.56 767.091C170.298 767.091 170.904 767.053 171.378 766.977C171.851 766.883 172.23 766.807 172.514 766.75L173.878 772.773C173.423 772.943 172.789 773.114 171.974 773.284C171.16 773.473 170.128 773.568 168.878 773.568C166.984 773.568 165.128 773.161 163.31 772.347C161.51 771.532 160.014 770.292 158.821 768.625C157.647 766.958 157.06 764.856 157.06 762.318V718.909ZM200.994 773.909C196.79 773.909 193.163 772.981 190.114 771.125C187.083 769.25 184.744 766.636 183.097 763.284C181.468 759.913 180.653 755.992 180.653 751.523C180.653 747.053 181.468 743.114 183.097 739.705C184.744 736.277 187.036 733.606 189.972 731.693C192.926 729.761 196.373 728.795 200.312 728.795C202.585 728.795 204.83 729.174 207.045 729.932C209.261 730.689 211.278 731.92 213.097 733.625C214.915 735.311 216.364 737.545 217.443 740.33C218.523 743.114 219.062 746.542 219.062 750.614V753.455H185.426V747.659H212.244C212.244 745.197 211.752 743 210.767 741.068C209.801 739.136 208.419 737.612 206.619 736.494C204.839 735.377 202.737 734.818 200.312 734.818C197.642 734.818 195.331 735.481 193.381 736.807C191.449 738.114 189.962 739.818 188.92 741.92C187.879 744.023 187.358 746.277 187.358 748.682V752.545C187.358 755.841 187.926 758.634 189.062 760.926C190.218 763.199 191.818 764.932 193.864 766.125C195.909 767.299 198.286 767.886 200.994 767.886C202.756 767.886 204.347 767.64 205.767 767.148C207.206 766.636 208.447 765.879 209.489 764.875C210.53 763.852 211.335 762.583 211.903 761.068L218.381 762.886C217.699 765.083 216.553 767.015 214.943 768.682C213.333 770.33 211.345 771.617 208.977 772.545C206.61 773.455 203.949 773.909 200.994 773.909ZM260.17 739.136L254.148 740.841C253.769 739.837 253.21 738.862 252.472 737.915C251.752 736.949 250.767 736.153 249.517 735.528C248.267 734.903 246.667 734.591 244.716 734.591C242.045 734.591 239.82 735.206 238.04 736.438C236.278 737.65 235.398 739.193 235.398 741.068C235.398 742.735 236.004 744.051 237.216 745.017C238.428 745.983 240.322 746.788 242.898 747.432L249.375 749.023C253.277 749.97 256.184 751.419 258.097 753.369C260.009 755.301 260.966 757.792 260.966 760.841C260.966 763.341 260.246 765.576 258.807 767.545C257.386 769.515 255.398 771.068 252.841 772.205C250.284 773.341 247.311 773.909 243.92 773.909C239.47 773.909 235.786 772.943 232.869 771.011C229.953 769.08 228.106 766.258 227.33 762.545L233.693 760.955C234.299 763.303 235.445 765.064 237.131 766.239C238.835 767.413 241.061 768 243.807 768C246.932 768 249.413 767.337 251.25 766.011C253.106 764.667 254.034 763.057 254.034 761.182C254.034 759.667 253.504 758.398 252.443 757.375C251.383 756.333 249.754 755.557 247.557 755.045L240.284 753.341C236.288 752.394 233.352 750.926 231.477 748.938C229.621 746.93 228.693 744.42 228.693 741.409C228.693 738.947 229.384 736.769 230.767 734.875C232.169 732.981 234.072 731.494 236.477 730.415C238.902 729.335 241.648 728.795 244.716 728.795C249.034 728.795 252.424 729.742 254.886 731.636C257.367 733.53 259.129 736.03 260.17 739.136Z" fill="white"/>
	<rect x="0.5" y="0.5" width="427" height="925" stroke="black"/>
</svg>
