<svg width="747" height="747" viewBox="0 0 747 747" fill="none" xmlns="http://www.w3.org/2000/svg">
	<g clip-path="url(#clip0_0_3)">
		<rect width="747" height="747" rx="32" fill="#D9D9D9"/>
		<rect x="33" y="97" width="680" height="120" fill="white"/>
		<rect x="33" y="249" width="680" height="120" fill="white"/>
		<rect x="33" y="401" width="680" height="120" fill="white"/>
		<rect x="33" y="553" width="680" height="120" fill="white"/>
		<path d="M303.517 638V634.165L317.92 618.398C319.611 616.551 321.003 614.946 322.097 613.582C323.19 612.205 324 610.912 324.526 609.705C325.065 608.483 325.335 607.205 325.335 605.869C325.335 604.335 324.966 603.007 324.227 601.885C323.503 600.763 322.509 599.896 321.244 599.286C319.98 598.675 318.56 598.369 316.983 598.369C315.307 598.369 313.844 598.717 312.594 599.413C311.358 600.095 310.399 601.054 309.717 602.29C309.05 603.526 308.716 604.974 308.716 606.636H303.688C303.688 604.08 304.277 601.835 305.456 599.903C306.635 597.972 308.24 596.466 310.271 595.386C312.317 594.307 314.611 593.767 317.153 593.767C319.71 593.767 321.976 594.307 323.95 595.386C325.925 596.466 327.473 597.922 328.595 599.754C329.717 601.587 330.278 603.625 330.278 605.869C330.278 607.474 329.987 609.044 329.405 610.578C328.837 612.098 327.842 613.795 326.422 615.67C325.016 617.531 323.062 619.804 320.562 622.489L310.761 632.972V633.312H331.045V638H303.517ZM354.078 638.597C350.868 638.597 348.134 637.723 345.875 635.976C343.616 634.214 341.891 631.665 340.697 628.327C339.504 624.974 338.908 620.926 338.908 616.182C338.908 611.466 339.504 607.439 340.697 604.101C341.905 600.749 343.638 598.192 345.896 596.43C348.169 594.655 350.896 593.767 354.078 593.767C357.26 593.767 359.98 594.655 362.239 596.43C364.511 598.192 366.244 600.749 367.438 604.101C368.645 607.439 369.249 611.466 369.249 616.182C369.249 620.926 368.652 624.974 367.459 628.327C366.266 631.665 364.54 634.214 362.281 635.976C360.023 637.723 357.288 638.597 354.078 638.597ZM354.078 633.909C357.26 633.909 359.732 632.375 361.493 629.307C363.254 626.239 364.135 621.864 364.135 616.182C364.135 612.403 363.73 609.186 362.92 606.53C362.125 603.874 360.974 601.849 359.469 600.457C357.977 599.065 356.18 598.369 354.078 598.369C350.925 598.369 348.46 599.925 346.685 603.036C344.909 606.132 344.021 610.514 344.021 616.182C344.021 619.96 344.419 623.17 345.214 625.812C346.01 628.455 347.153 630.464 348.645 631.842C350.151 633.22 351.962 633.909 354.078 633.909ZM377.345 638V634.165L391.749 618.398C393.439 616.551 394.831 614.946 395.925 613.582C397.018 612.205 397.828 610.912 398.354 609.705C398.893 608.483 399.163 607.205 399.163 605.869C399.163 604.335 398.794 603.007 398.055 601.885C397.331 600.763 396.337 599.896 395.072 599.286C393.808 598.675 392.388 598.369 390.811 598.369C389.135 598.369 387.672 598.717 386.422 599.413C385.186 600.095 384.227 601.054 383.545 602.29C382.878 603.526 382.544 604.974 382.544 606.636H377.516C377.516 604.08 378.105 601.835 379.284 599.903C380.463 597.972 382.068 596.466 384.099 595.386C386.145 594.307 388.439 593.767 390.982 593.767C393.538 593.767 395.804 594.307 397.778 595.386C399.753 596.466 401.301 597.922 402.423 599.754C403.545 601.587 404.107 603.625 404.107 605.869C404.107 607.474 403.815 609.044 403.233 610.578C402.665 612.098 401.67 613.795 400.25 615.67C398.844 617.531 396.891 619.804 394.391 622.489L384.589 632.972V633.312H404.874V638H377.345ZM428.418 638.597C425.605 638.597 423.098 638.114 420.896 637.148C418.709 636.182 416.969 634.839 415.676 633.121C414.398 631.388 413.702 629.378 413.588 627.091H418.957C419.071 628.497 419.554 629.712 420.406 630.734C421.259 631.743 422.374 632.524 423.751 633.078C425.129 633.632 426.656 633.909 428.332 633.909C430.207 633.909 431.869 633.582 433.318 632.929C434.767 632.276 435.903 631.366 436.727 630.202C437.551 629.037 437.963 627.688 437.963 626.153C437.963 624.548 437.565 623.135 436.77 621.913C435.974 620.678 434.81 619.712 433.276 619.016C431.741 618.32 429.866 617.972 427.651 617.972H424.156V613.284H427.651C429.384 613.284 430.903 612.972 432.21 612.347C433.531 611.722 434.561 610.841 435.3 609.705C436.053 608.568 436.429 607.233 436.429 605.699C436.429 604.222 436.102 602.936 435.449 601.842C434.795 600.749 433.872 599.896 432.679 599.286C431.5 598.675 430.108 598.369 428.503 598.369C426.997 598.369 425.577 598.646 424.241 599.2C422.92 599.74 421.841 600.528 421.003 601.565C420.165 602.588 419.71 603.824 419.639 605.273H414.526C414.611 602.986 415.3 600.983 416.592 599.264C417.885 597.531 419.575 596.182 421.663 595.216C423.766 594.25 426.074 593.767 428.588 593.767C431.287 593.767 433.602 594.314 435.534 595.408C437.466 596.487 438.95 597.915 439.987 599.69C441.024 601.466 441.543 603.384 441.543 605.443C441.543 607.901 440.896 609.996 439.604 611.729C438.325 613.462 436.585 614.662 434.384 615.33V615.67C437.139 616.125 439.291 617.297 440.839 619.186C442.388 621.061 443.162 623.384 443.162 626.153C443.162 628.526 442.516 630.656 441.223 632.545C439.945 634.42 438.197 635.898 435.982 636.977C433.766 638.057 431.244 638.597 428.418 638.597Z" fill="black"/>
		<rect x="612.5" y="117.5" width="79" height="79" stroke="black"/>
		<rect x="612.5" y="269.5" width="79" height="79" stroke="black"/>
		<path fill-rule="evenodd" clip-rule="evenodd" d="M669.983 295.683C670.894 296.595 670.894 298.072 669.983 298.983L648.983 319.983C648.546 320.421 647.952 320.667 647.333 320.667C646.714 320.667 646.121 320.421 645.683 319.983L636.35 310.65C635.439 309.739 635.439 308.261 636.35 307.35C637.261 306.439 638.739 306.439 639.65 307.35L647.333 315.034L666.683 295.683C667.595 294.772 669.072 294.772 669.983 295.683Z" fill="black"/>
		<path fill-rule="evenodd" clip-rule="evenodd" d="M669.983 143.683C670.894 144.595 670.894 146.072 669.983 146.983L648.983 167.983C648.546 168.421 647.952 168.667 647.333 168.667C646.714 168.667 646.121 168.421 645.683 167.983L636.35 158.65C635.439 157.739 635.439 156.261 636.35 155.35C637.261 154.439 638.739 154.439 639.65 155.35L647.333 163.034L666.683 143.683C667.595 142.772 669.072 142.772 669.983 143.683Z" fill="black"/>
		<rect x="612.5" y="421.5" width="79" height="79" stroke="black"/>
		<path fill-rule="evenodd" clip-rule="evenodd" d="M669.983 447.683C670.894 448.595 670.894 450.072 669.983 450.983L648.983 471.983C648.546 472.421 647.952 472.667 647.333 472.667C646.714 472.667 646.121 472.421 645.683 471.983L636.35 462.65C635.439 461.739 635.439 460.261 636.35 459.35C637.261 458.439 638.739 458.439 639.65 459.35L647.333 467.034L666.683 447.683C667.595 446.772 669.072 446.772 669.983 447.683Z" fill="black"/>
		<path fill-rule="evenodd" clip-rule="evenodd" d="M669.983 295.683C670.894 296.595 670.894 298.072 669.983 298.983L648.983 319.983C648.546 320.421 647.952 320.667 647.333 320.667C646.714 320.667 646.121 320.421 645.683 319.983L636.35 310.65C635.439 309.739 635.439 308.261 636.35 307.35C637.261 306.439 638.739 306.439 639.65 307.35L647.333 315.034L666.683 295.683C667.595 294.772 669.072 294.772 669.983 295.683Z" fill="black"/>
		<rect x="612.5" y="573.5" width="79" height="79" stroke="black"/>
		<path fill-rule="evenodd" clip-rule="evenodd" d="M669.983 143.683C670.894 144.595 670.894 146.072 669.983 146.983L648.983 167.983C648.546 168.421 647.952 168.667 647.333 168.667C646.714 168.667 646.121 168.421 645.683 167.983L636.35 158.65C635.439 157.739 635.439 156.261 636.35 155.35C637.261 154.439 638.739 154.439 639.65 155.35L647.333 163.034L666.683 143.683C667.595 142.772 669.072 142.772 669.983 143.683Z" fill="black"/>
		<path d="M668.333 610.667H654.333H649.667H635.667C635.048 610.667 634.454 610.912 634.017 611.35C633.579 611.788 633.333 612.381 633.333 613C633.333 613.619 633.579 614.212 634.017 614.65C634.454 615.087 635.048 615.333 635.667 615.333H649.667H654.333H668.333C668.952 615.333 669.546 615.087 669.983 614.65C670.421 614.212 670.667 613.619 670.667 613C670.667 612.381 670.421 611.788 669.983 611.35C669.546 610.912 668.952 610.667 668.333 610.667Z" fill="black"/>
		<path d="M56.7244 137.727H63.5568L79.6222 176.967H80.1761L96.2415 137.727H103.074V185H97.7188V149.084H97.2571L82.4844 185H77.3139L62.5412 149.084H62.0795V185H56.7244V137.727ZM128.216 185.739C125.016 185.739 122.207 184.977 119.791 183.453C117.391 181.93 115.513 179.799 114.159 177.06C112.82 174.321 112.151 171.12 112.151 167.457C112.151 163.764 112.82 160.54 114.159 157.786C115.513 155.031 117.391 152.892 119.791 151.369C122.207 149.846 125.016 149.084 128.216 149.084C131.417 149.084 134.218 149.846 136.618 151.369C139.034 152.892 140.912 155.031 142.25 157.786C143.605 160.54 144.282 163.764 144.282 167.457C144.282 171.12 143.605 174.321 142.25 177.06C140.912 179.799 139.034 181.93 136.618 183.453C134.218 184.977 131.417 185.739 128.216 185.739ZM128.216 180.845C130.648 180.845 132.648 180.222 134.218 178.975C135.787 177.729 136.949 176.09 137.703 174.059C138.457 172.028 138.834 169.827 138.834 167.457C138.834 165.088 138.457 162.879 137.703 160.833C136.949 158.786 135.787 157.132 134.218 155.87C132.648 154.608 130.648 153.977 128.216 153.977C125.785 153.977 123.785 154.608 122.215 155.87C120.645 157.132 119.484 158.786 118.729 160.833C117.975 162.879 117.598 165.088 117.598 167.457C117.598 169.827 117.975 172.028 118.729 174.059C119.484 176.09 120.645 177.729 122.215 178.975C123.785 180.222 125.785 180.845 128.216 180.845ZM155.2 149.545L163.694 164.041L172.188 149.545H178.467L167.018 167.273L178.467 185H172.188L163.694 171.243L155.2 185H148.921L160.185 167.273L148.921 149.545H155.2ZM186.24 185V149.545H191.687V185H186.24ZM189.01 143.636C187.948 143.636 187.032 143.275 186.263 142.551C185.509 141.828 185.132 140.959 185.132 139.943C185.132 138.928 185.509 138.058 186.263 137.335C187.032 136.612 187.948 136.25 189.01 136.25C190.071 136.25 190.979 136.612 191.733 137.335C192.503 138.058 192.887 138.928 192.887 139.943C192.887 140.959 192.503 141.828 191.733 142.551C190.979 143.275 190.071 143.636 189.01 143.636ZM217.084 149.545V154.162H198.71V149.545H217.084ZM204.065 141.051H209.513V174.844C209.513 176.383 209.736 177.537 210.182 178.306C210.644 179.06 211.228 179.568 211.936 179.83C212.659 180.076 213.421 180.199 214.221 180.199C214.821 180.199 215.314 180.168 215.699 180.107C216.083 180.03 216.391 179.968 216.622 179.922L217.73 184.815C217.361 184.954 216.845 185.092 216.183 185.231C215.522 185.385 214.683 185.462 213.667 185.462C212.129 185.462 210.62 185.131 209.143 184.469C207.681 183.807 206.466 182.799 205.496 181.445C204.542 180.091 204.065 178.383 204.065 176.321V141.051ZM239.762 185.739C236.346 185.739 233.399 184.985 230.921 183.477C228.459 181.953 226.559 179.83 225.22 177.106C223.897 174.367 223.235 171.181 223.235 167.55C223.235 163.918 223.897 160.717 225.22 157.947C226.559 155.162 228.421 152.992 230.806 151.438C233.207 149.869 236.007 149.084 239.208 149.084C241.055 149.084 242.878 149.392 244.679 150.007C246.479 150.623 248.118 151.623 249.595 153.008C251.072 154.377 252.25 156.193 253.127 158.455C254.004 160.717 254.442 163.503 254.442 166.811V169.119H227.113V164.411H248.903C248.903 162.41 248.503 160.625 247.702 159.055C246.918 157.486 245.794 156.247 244.332 155.339C242.886 154.431 241.178 153.977 239.208 153.977C237.038 153.977 235.161 154.516 233.576 155.593C232.006 156.655 230.798 158.04 229.952 159.748C229.106 161.456 228.682 163.287 228.682 165.241V168.381C228.682 171.058 229.144 173.328 230.067 175.19C231.006 177.037 232.306 178.445 233.968 179.414C235.63 180.368 237.561 180.845 239.762 180.845C241.193 180.845 242.486 180.645 243.64 180.245C244.809 179.83 245.817 179.214 246.664 178.398C247.51 177.567 248.164 176.536 248.626 175.305L253.888 176.783C253.334 178.568 252.403 180.137 251.095 181.491C249.787 182.83 248.172 183.877 246.248 184.631C244.325 185.369 242.163 185.739 239.762 185.739ZM277.132 185.739C273.809 185.739 270.946 184.954 268.546 183.384C266.145 181.815 264.299 179.653 263.006 176.898C261.713 174.144 261.067 170.997 261.067 167.457C261.067 163.857 261.729 160.679 263.052 157.924C264.391 155.154 266.253 152.992 268.638 151.438C271.039 149.869 273.839 149.084 277.04 149.084C279.533 149.084 281.78 149.545 283.78 150.469C285.781 151.392 287.419 152.685 288.697 154.347C289.974 156.009 290.766 157.947 291.074 160.163H285.627C285.211 158.548 284.288 157.116 282.857 155.87C281.441 154.608 279.533 153.977 277.132 153.977C275.009 153.977 273.147 154.531 271.546 155.639C269.961 156.732 268.723 158.278 267.83 160.279C266.953 162.264 266.514 164.595 266.514 167.273C266.514 170.012 266.945 172.397 267.807 174.428C268.684 176.46 269.915 178.037 271.5 179.16C273.101 180.283 274.978 180.845 277.132 180.845C278.548 180.845 279.833 180.599 280.987 180.107C282.141 179.614 283.118 178.906 283.919 177.983C284.719 177.06 285.288 175.952 285.627 174.659H291.074C290.766 176.752 290.005 178.637 288.789 180.314C287.589 181.976 285.996 183.3 284.011 184.284C282.041 185.254 279.748 185.739 277.132 185.739ZM304.485 163.672V185H299.038V137.727H304.485V155.085H304.947C305.778 153.254 307.024 151.8 308.686 150.723C310.363 149.63 312.595 149.084 315.38 149.084C317.796 149.084 319.912 149.569 321.728 150.538C323.543 151.492 324.951 152.962 325.952 154.947C326.967 156.916 327.475 159.425 327.475 162.472V185H322.028V162.841C322.028 160.025 321.297 157.847 319.835 156.309C318.388 154.754 316.38 153.977 313.81 153.977C312.025 153.977 310.425 154.354 309.009 155.108C307.609 155.862 306.501 156.963 305.685 158.409C304.885 159.856 304.485 161.61 304.485 163.672Z" fill="black"/>
		<path d="M90.8864 286.364V330H85.7727L61.9943 295.739H61.5682V330H56.2841V286.364H61.3977L85.2614 320.71H85.6875V286.364H90.8864ZM114.074 330.682C111.119 330.682 108.527 329.979 106.297 328.572C104.081 327.166 102.348 325.199 101.098 322.67C99.8619 320.142 99.244 317.187 99.244 313.807C99.244 310.398 99.8619 307.422 101.098 304.879C102.348 302.337 104.081 300.362 106.297 298.956C108.527 297.55 111.119 296.847 114.074 296.847C117.028 296.847 119.613 297.55 121.829 298.956C124.059 300.362 125.792 302.337 127.028 304.879C128.278 307.422 128.903 310.398 128.903 313.807C128.903 317.187 128.278 320.142 127.028 322.67C125.792 325.199 124.059 327.166 121.829 328.572C119.613 329.979 117.028 330.682 114.074 330.682ZM114.074 326.165C116.318 326.165 118.164 325.589 119.613 324.439C121.062 323.288 122.135 321.776 122.831 319.901C123.527 318.026 123.875 315.994 123.875 313.807C123.875 311.619 123.527 309.581 122.831 307.692C122.135 305.803 121.062 304.276 119.613 303.111C118.164 301.946 116.318 301.364 114.074 301.364C111.829 301.364 109.983 301.946 108.534 303.111C107.085 304.276 106.012 305.803 105.316 307.692C104.62 309.581 104.272 311.619 104.272 313.807C104.272 315.994 104.62 318.026 105.316 319.901C106.012 321.776 107.085 323.288 108.534 324.439C109.983 325.589 111.829 326.165 114.074 326.165ZM150.812 297.273V301.534H133.852V297.273H150.812ZM138.795 289.432H143.823V320.625C143.823 322.045 144.029 323.111 144.441 323.821C144.867 324.517 145.407 324.986 146.06 325.227C146.728 325.455 147.431 325.568 148.17 325.568C148.724 325.568 149.178 325.54 149.533 325.483C149.888 325.412 150.173 325.355 150.386 325.312L151.408 329.83C151.067 329.957 150.592 330.085 149.981 330.213C149.37 330.355 148.596 330.426 147.658 330.426C146.238 330.426 144.846 330.121 143.482 329.51C142.133 328.899 141.011 327.969 140.116 326.719C139.235 325.469 138.795 323.892 138.795 321.989V289.432ZM171.746 330.682C168.592 330.682 165.872 329.986 163.585 328.594C161.312 327.188 159.558 325.227 158.322 322.713C157.101 320.185 156.49 317.244 156.49 313.892C156.49 310.54 157.101 307.585 158.322 305.028C159.558 302.457 161.277 300.455 163.479 299.02C165.695 297.571 168.28 296.847 171.234 296.847C172.939 296.847 174.622 297.131 176.284 297.699C177.946 298.267 179.459 299.19 180.822 300.469C182.186 301.733 183.273 303.409 184.082 305.497C184.892 307.585 185.297 310.156 185.297 313.21V315.341H160.07V310.994H180.183C180.183 309.148 179.814 307.5 179.075 306.051C178.351 304.602 177.314 303.459 175.964 302.621C174.629 301.783 173.053 301.364 171.234 301.364C169.232 301.364 167.499 301.861 166.036 302.855C164.587 303.835 163.472 305.114 162.69 306.69C161.909 308.267 161.518 309.957 161.518 311.761V314.659C161.518 317.131 161.945 319.226 162.797 320.945C163.663 322.649 164.864 323.949 166.398 324.844C167.932 325.724 169.714 326.165 171.746 326.165C173.067 326.165 174.26 325.98 175.325 325.611C176.405 325.227 177.335 324.659 178.116 323.906C178.898 323.139 179.501 322.187 179.928 321.051L184.786 322.415C184.274 324.062 183.415 325.511 182.207 326.761C181 327.997 179.509 328.963 177.733 329.659C175.957 330.341 173.962 330.682 171.746 330.682ZM216.128 304.602L211.611 305.881C211.327 305.128 210.908 304.396 210.354 303.686C209.814 302.962 209.075 302.365 208.138 301.896C207.2 301.428 206 301.193 204.537 301.193C202.534 301.193 200.865 301.655 199.53 302.578C198.209 303.487 197.548 304.645 197.548 306.051C197.548 307.301 198.003 308.288 198.912 309.013C199.821 309.737 201.241 310.341 203.173 310.824L208.031 312.017C210.957 312.727 213.138 313.814 214.572 315.277C216.007 316.726 216.724 318.594 216.724 320.881C216.724 322.756 216.185 324.432 215.105 325.909C214.04 327.386 212.548 328.551 210.631 329.403C208.713 330.256 206.483 330.682 203.94 330.682C200.602 330.682 197.839 329.957 195.652 328.509C193.464 327.06 192.08 324.943 191.497 322.159L196.27 320.966C196.724 322.727 197.584 324.048 198.848 324.929C200.126 325.81 201.795 326.25 203.855 326.25C206.199 326.25 208.06 325.753 209.438 324.759C210.83 323.75 211.526 322.543 211.526 321.136C211.526 320 211.128 319.048 210.332 318.281C209.537 317.5 208.315 316.918 206.668 316.534L201.213 315.256C198.216 314.545 196.014 313.445 194.608 311.953C193.216 310.447 192.52 308.565 192.52 306.307C192.52 304.46 193.038 302.827 194.075 301.406C195.126 299.986 196.554 298.871 198.358 298.061C200.176 297.251 202.236 296.847 204.537 296.847C207.776 296.847 210.318 297.557 212.165 298.977C214.026 300.398 215.347 302.273 216.128 304.602Z" fill="black"/>
		<path d="M71.1136 455.364H76.7955C80.7727 455.364 84.0114 456.206 86.5114 457.892C89.0303 459.578 90.8769 461.718 92.0511 464.312C93.2443 466.907 93.8409 469.568 93.8409 472.295C93.8409 475.591 93.0739 478.564 91.5398 481.216C90.0057 483.848 87.8939 485.941 85.2045 487.494C82.5152 489.028 79.447 489.795 76 489.795C73.8977 489.795 71.8144 489.407 69.75 488.631C67.7045 487.835 65.8864 486.33 64.2955 484.114L63.8409 484.341V473.205C63.8409 475.061 64.2955 476.775 65.2045 478.347C66.1326 479.919 67.4394 481.178 69.125 482.125C70.8295 483.072 72.8561 483.545 75.2045 483.545C77.6667 483.545 79.7879 483.025 81.5682 481.983C83.3485 480.941 84.7216 479.568 85.6875 477.864C86.6534 476.159 87.1364 474.303 87.1364 472.295C87.1364 470.402 86.7008 468.612 85.8295 466.926C84.9773 465.222 83.7652 463.839 82.1932 462.778C80.6402 461.699 78.803 461.159 76.6818 461.159H71.1136V455.364ZM74.4091 430.023C77.1174 430.023 79.5133 430.458 81.5966 431.33C83.6989 432.201 85.4697 433.375 86.9091 434.852C88.3674 436.311 89.4659 437.949 90.2045 439.767C90.9621 441.585 91.3409 443.451 91.3409 445.364C91.3409 447.75 90.7348 450.127 89.5227 452.494C88.3106 454.843 86.4545 456.803 83.9545 458.375C81.4545 459.928 78.2727 460.705 74.4091 460.705H71.1136V454.909H74.2955C76.4924 454.909 78.3674 454.455 79.9205 453.545C81.4924 452.636 82.6856 451.453 83.5 449.994C84.3333 448.536 84.75 446.992 84.75 445.364C84.75 442.75 83.7462 440.581 81.7386 438.858C79.75 437.134 77.3068 436.273 74.4091 436.273C72.4773 436.273 70.7064 436.67 69.0966 437.466C67.5057 438.261 66.2273 439.369 65.2614 440.79C64.3144 442.21 63.8409 443.848 63.8409 445.705V505.364H57.1364V445.705C57.1364 442.712 57.875 440.032 59.3523 437.665C60.8485 435.297 62.8939 433.432 65.4886 432.068C68.1023 430.705 71.0758 430.023 74.4091 430.023ZM105.467 489V430.818H140.581V437.068H112.513V456.727H138.763V462.977H112.513V482.75H141.036V489H105.467ZM150.098 437.068V430.818H193.734V437.068H175.439V489H168.393V437.068H150.098ZM200.197 489H192.811L214.175 430.818H221.447L242.811 489H235.425L218.038 440.023H217.584L200.197 489ZM202.925 466.273H232.697V472.523H202.925V466.273Z" fill="#158E46"/>
		<path d="M373 75L373 712" stroke="#4DB877" stroke-width="30" stroke-linecap="round"/>
		<path d="M383.2 332.68C378.408 339.261 368.592 339.261 363.8 332.68L147.061 35.0643C141.286 27.1335 146.951 16 156.762 16H590.238C600.049 16 605.714 27.1335 599.939 35.0643L383.2 332.68Z" fill="#4DB877"/>
	</g>
	<defs>
		<clipPath id="clip0_0_3">
			<rect width="747" height="747" fill="white"/>
		</clipPath>
	</defs>
</svg>
